<?xml version="1.0" standalone="no"?>
<!DOCTYPE svg PUBLIC "-//W3C//DTD SVG 20010904//EN"
 "http://www.w3.org/TR/2001/REC-SVG-20010904/DTD/svg10.dtd">
<svg version="1.0" xmlns="http://www.w3.org/2000/svg"
 width="1080.000000pt" height="1080.000000pt" viewBox="0 0 1080.000000 1080.000000"
 preserveAspectRatio="xMidYMid meet">
<metadata>
Created by potrace 1.11, written by Peter Selinger 2001-2013
</metadata>
<g transform="translate(0.000000,1080.000000) scale(0.100000,-0.100000)"
fill="#000000" stroke="none">
<path d="M1140 10040 c-176 -5 -187 -6 -220 -30 -19 -13 -41 -31 -48 -40 -18
-21 -8 -88 17 -114 144 -147 205 -206 216 -206 2 0 26 -22 52 -50 26 -27 52
-50 58 -50 6 0 17 -9 25 -20 8 -11 19 -20 25 -20 13 0 48 -39 58 -63 4 -10 18
-22 31 -27 14 -5 37 -23 52 -40 15 -16 33 -30 41 -30 7 0 13 -4 13 -9 0 -10 5
-16 75 -76 25 -22 88 -80 140 -130 100 -96 134 -125 147 -125 4 0 8 -5 8 -11
0 -13 78 -89 91 -89 5 0 38 -28 73 -62 182 -179 216 -212 216 -206 0 4 26 -19
59 -50 82 -79 183 -172 187 -172 2 0 21 -17 42 -37 22 -21 57 -54 78 -74 22
-19 48 -46 60 -60 11 -13 43 -42 69 -64 54 -45 152 -135 256 -237 38 -38 74
-68 79 -68 6 0 10 -6 10 -13 0 -13 40 -48 85 -74 11 -7 17 -12 12 -13 -4 0 11
-17 34 -37 23 -21 70 -64 103 -95 34 -32 75 -70 92 -85 17 -15 66 -61 110
-101 43 -40 82 -76 87 -80 4 -4 25 -26 47 -49 22 -24 43 -43 47 -43 3 0 32
-26 62 -58 31 -32 66 -65 79 -74 13 -9 76 -67 141 -129 65 -63 129 -123 142
-134 13 -11 33 -32 44 -45 11 -14 50 -50 85 -80 36 -30 68 -60 73 -67 4 -7 31
-34 60 -60 28 -26 73 -68 98 -93 25 -25 64 -61 85 -81 21 -20 44 -43 50 -50 6
-8 22 -24 35 -35 13 -12 62 -61 108 -110 127 -135 139 -148 153 -160 30 -27
68 -77 69 -93 1 -9 3 -27 5 -41 3 -14 7 -65 9 -115 3 -49 7 -112 9 -140 2 -27
7 -93 10 -145 4 -52 11 -131 15 -175 5 -44 10 -117 10 -162 1 -45 4 -91 6
-102 2 -12 7 -92 10 -178 3 -87 8 -174 12 -193 3 -19 7 -53 8 -75 7 -78 15
-201 21 -300 3 -55 12 -149 19 -210 7 -60 12 -127 11 -147 -1 -21 2 -38 6 -38
4 0 6 -8 6 -17 -1 -30 13 -243 22 -343 5 -52 12 -141 16 -198 4 -66 12 -108
20 -117 8 -7 14 -20 14 -29 0 -28 37 -39 67 -19 15 10 29 17 31 15 5 -4 91
104 158 198 30 41 73 100 96 131 24 30 52 68 63 83 11 16 29 40 41 55 12 14
40 54 63 87 l41 62 10 143 c5 79 14 191 19 249 5 58 12 164 16 235 3 72 8 155
10 185 3 30 7 111 10 180 13 274 14 298 30 425 5 36 15 208 20 345 4 74 11
160 17 190 6 30 12 78 14 105 8 97 14 115 62 167 43 46 136 141 165 168 7 6
50 49 97 96 47 47 112 110 145 139 33 30 105 97 159 149 55 53 102 96 106 96
4 0 36 28 71 63 55 53 278 262 356 335 13 12 26 22 28 22 3 0 23 20 46 45 23
25 45 45 50 45 7 0 77 65 309 290 48 47 127 122 176 167 77 70 191 178 259
243 12 11 26 20 33 20 7 0 12 5 12 11 0 7 34 44 77 83 42 39 98 91 125 116 26
25 62 58 80 74 31 27 203 185 289 266 20 19 81 76 133 125 53 50 126 118 163
153 36 35 78 69 92 77 15 7 33 25 41 39 7 14 17 26 22 26 5 0 24 15 42 33 17
17 62 59 99 92 36 33 103 95 147 138 44 42 85 77 90 77 6 0 10 7 10 15 0 8 4
15 8 15 5 0 24 13 43 30 50 44 115 101 147 130 15 14 63 57 106 95 167 150
254 242 265 280 23 86 -18 140 -119 154 -67 9 -8333 10 -8680 1z"/>
<path d="M5308 3076 c-47 -17 -117 -79 -142 -126 -11 -20 -21 -64 -24 -101 -4
-56 -1 -74 19 -113 46 -92 156 -162 238 -151 166 23 258 157 221 324 -10 47
-21 64 -64 106 -73 72 -159 93 -248 61z"/>
<path d="M5707 2460 c-32 -10 -73 -28 -90 -40 -70 -48 -105 -191 -72 -292 19
-59 44 -91 89 -114 41 -21 134 -43 160 -38 120 22 147 41 206 139 44 73 31
187 -30 258 -43 50 -63 65 -112 81 -73 24 -91 24 -151 6z"/>
<path d="M5297 1960 c-171 -70 -211 -295 -75 -422 55 -50 135 -70 226 -55 76
13 126 54 167 138 97 201 -110 423 -318 339z"/>
<path d="M5530 1225 c-55 -28 -68 -43 -108 -115 -28 -49 -31 -62 -28 -126 2
-54 9 -80 29 -115 61 -103 116 -142 202 -145 113 -4 144 11 200 91 11 15 25
33 30 39 29 32 40 72 38 149 -1 64 -6 86 -22 108 -12 16 -21 32 -21 37 0 11
-70 70 -105 88 -45 23 -161 17 -215 -11z"/>
</g>
</svg>
